<?xml version="1.0" encoding="UTF-8"?>
<!DOCTYPE svg PUBLIC "-//W3C//DTD SVG 1.1//EN" "http://www.w3.org/Graphics/SVG/1.1/DTD/svg11.dtd">
<!-- Creator: CorelDRAW 2017 -->
<svg xmlns="http://www.w3.org/2000/svg" xml:space="preserve" width="28.0343mm" height="13.3042mm" version="1.1" style="shape-rendering:geometricPrecision; text-rendering:geometricPrecision; image-rendering:optimizeQuality; fill-rule:evenodd; clip-rule:evenodd"
viewBox="0 0 1473.48 699.27"
 xmlns:xlink="http://www.w3.org/1999/xlink">
 <defs>
  <style type="text/css">
   <![CDATA[
    .fil0 {fill:#002F52}
    .fil1 {fill:white}
   ]]>
  </style>
 </defs>
 <g id="Camada_x0020_1">
  <metadata id="CorelCorpID_0Corel-Layer"/>
  <path class="fil0" d="M441.81 420.25c553.21,-297.95 881.91,-264 1031.67,34.45 -335.84,195.01 -678.82,226.04 -1031.4,36.01 -14.01,138.22 -151.45,212.79 -442.08,208.36 90.5,-157.36 222.12,-230.96 384.94,-241.05 -1.53,-0.92 -3.05,-1.82 -4.58,-2.75 -160.7,-11.17 -290.7,-84.86 -380.36,-240.75 288.77,-4.4 426.32,69.18 441.81,205.71z"/>
  <path class="fil0" d="M1031.92 159.67l0 -12.87c-6.41,-0.8 -11.63,-2.24 -15.65,-4.32 -4.02,-2.07 -7.48,-5.43 -10.41,-10.04 -2.93,-4.63 -4.61,-10.26 -5.09,-16.94l12.87 -2.49c1,6.95 2.75,12.04 5.29,15.28 3.61,4.58 7.95,7.14 12.99,7.68l0 -40.39c-5.29,-1.37 -10.67,-3.61 -16.19,-6.71 -4.09,-2.27 -7.24,-5.43 -9.46,-9.48 -2.22,-4.07 -3.32,-8.66 -3.32,-13.8 0,-9.14 3.24,-16.55 9.7,-22.23 4.32,-3.8 10.75,-6.14 19.26,-7l0 -6.14 7.61 0 0 6.14c7.43,0.71 13.33,2.93 17.7,6.61 5.58,4.68 8.95,11.12 10.09,19.28l-13.16 2.04c-0.76,-5.09 -2.34,-9.02 -4.76,-11.73 -2.39,-2.73 -5.68,-4.51 -9.87,-5.39l0 37.05c6.46,1.66 10.73,2.95 12.82,3.85 4,1.76 7.24,3.9 9.76,6.43 2.53,2.51 4.46,5.51 5.82,9 1.34,3.46 2.02,7.24 2.02,11.28 0,8.9 -2.83,16.31 -8.48,22.28 -5.66,5.95 -12.97,9.12 -21.94,9.56l0 13.02 -7.61 0zm0 -112.62c-4.97,0.75 -8.92,2.75 -11.77,6.02 -2.88,3.24 -4.32,7.07 -4.32,11.51 0,4.39 1.22,8.07 3.66,11.02 2.43,2.95 6.58,5.19 12.43,6.7l0 -35.25zm7.61 88.93c5,-0.61 9.12,-2.78 12.38,-6.51 3.24,-3.71 4.88,-8.31 4.88,-13.77 0,-4.68 -1.15,-8.41 -3.46,-11.26 -2.32,-2.83 -6.92,-5.12 -13.8,-6.9l0 38.44z"/>
  <path class="fil1" d="M934.33 238.19c34.35,-3.98 68.55,-11.16 103.04,-13.03 34.42,-1.88 68.98,-1.39 103.46,-2.26 0.11,3.16 0.22,6.32 0.33,9.48 0.11,3.16 0.22,6.32 0.33,9.47 -34.48,0.87 -69.04,0.38 -103.46,2.26 -34.5,1.88 -68.69,9.06 -103.04,13.03 -0.11,-3.15 -0.22,-6.31 -0.33,-9.47 -0.11,-3.15 -0.22,-6.31 -0.33,-9.48z"/>
  <path class="fil0" d="M1036.99 0c50.03,0 90.59,40.56 90.59,90.58 0,50.03 -40.56,90.58 -90.59,90.58 -50.03,0 -90.58,-40.56 -90.58,-90.58 0,-50.03 40.56,-90.58 90.58,-90.58zm0 10.29c44.34,0 80.29,35.95 80.29,80.29 0,44.34 -35.95,80.29 -80.29,80.29 -44.34,0 -80.29,-35.95 -80.29,-80.29 0,-44.34 35.95,-80.29 80.29,-80.29z"/>
 </g>
</svg>
