<?xml version="1.0" encoding="UTF-8"?>
<!DOCTYPE svg PUBLIC "-//W3C//DTD SVG 1.1//EN" "http://www.w3.org/Graphics/SVG/1.1/DTD/svg11.dtd">
<!-- Creator: CorelDRAW 2017 -->
<svg xmlns="http://www.w3.org/2000/svg" xml:space="preserve" width="26.4646mm" height="14.4718mm" version="1.1" style="shape-rendering:geometricPrecision; text-rendering:geometricPrecision; image-rendering:optimizeQuality; fill-rule:evenodd; clip-rule:evenodd"
viewBox="0 0 734.74 401.78"
 xmlns:xlink="http://www.w3.org/1999/xlink">
 <defs>
  <style type="text/css">
   <![CDATA[
    .fil0 {fill:black}
   ]]>
  </style>
 </defs>
 <g id="Camada_x0020_1">
  <metadata id="CorelCorpID_0Corel-Layer"/>
  <path class="fil0" d="M718.46 43.31c-4.01,1.21 -4.33,2.37 -8.23,5.22 -9.72,7.12 -6.16,14.56 -15.82,24.93 2.47,-6.22 6.09,-11.13 8.94,-18.73 -9.54,4.75 -22.61,16.94 -30.87,23.99 -5.29,4.51 -9.77,8.8 -5.32,18.35 24.26,52.04 29.59,102.87 15.31,160.31 -1.88,7.56 -3.64,14.72 -6.28,21.81 -1.53,4.12 -7.73,15.9 -7.84,18.47 -0.34,8.29 17.71,27.87 22.71,31.46 11.68,8.39 29.95,4.43 43.68,10.62 -2.69,5.44 -4.77,6.29 -16.1,8.68 -20.59,4.35 -66.28,5.07 -85.31,-2.98 -7.82,-3.31 -7.06,-6.72 -13.38,-4.28 -31.9,12.29 -34.4,4.78 -39.47,13.97 -0.44,0.79 -1.21,2.9 -1.79,4.13 -1.55,3.27 -3.33,6.04 -4.94,8.39 -23.99,35.18 -115.22,30.19 -148.65,20.81 7.39,-28.72 52.55,-26.42 64.02,-34.78l-286.85 3.31c-0.4,12.08 -2.01,17.72 -9.68,23.04 -31.59,21.9 -159.76,27.46 -192.6,15.71 3.76,-15.8 34.17,-24.68 53.89,-25.86 12.52,-0.75 23.65,-2 35.99,-4.05 5.77,-0.96 10.54,-1.72 15.81,-3.25 13.1,-3.79 10.81,-5.01 12.14,-8.14 -32.27,1.73 -83.71,4.59 -112.49,-3.82 3.44,-9.86 34.39,-17.67 46.69,-20.91 19.76,-5.2 38.32,-7.43 59.6,-6.81 31.96,0.94 20.72,5.68 48.55,-16.7l40.05 -26.56c87.54,-53.06 258.48,-75.34 304,-99.87 44,-23.72 40.09,-48.67 44.18,-90.85 8.05,-83.05 48.78,-90.57 115.08,-81.65 24.67,3.32 44.5,-10.13 58.95,-6.74 6.62,11.04 -0.71,12.56 0.83,19.86 0.49,2.33 11,13.87 11.15,14.07l-1.34 1.06c-3.23,-5.44 -6.17,-8.65 -10.46,-12.08 -3.14,7.16 3.65,16.15 3.61,24.86 -1.91,-3.68 -4.08,-12.01 -5.42,-17.3l-1.98 5.47c-0.4,2.27 -0.24,3.85 -0.12,6.05 0.24,4.77 0.73,6.37 0.24,11.42l-0.48 -10.64z"/>
 </g>
</svg>
